<?xml version="1.0" standalone="no"?>
<!DOCTYPE svg PUBLIC "-//W3C//DTD SVG 20010904//EN"
 "http://www.w3.org/TR/2001/REC-SVG-20010904/DTD/svg10.dtd">
<svg version="1.0" xmlns="http://www.w3.org/2000/svg"
 width="100.000000pt" height="100.000000pt" viewBox="0 0 100.000000 100.000000"
 preserveAspectRatio="xMidYMid meet">

<g transform="translate(0.000000,100.000000) scale(0.100000,-0.100000)"
fill="#000000" stroke="none">
<path d="M208 845 c-46 -26 -50 -62 -40 -350 9 -288 14 -311 74 -336 25 -11
92 -14 283 -14 360 0 340 -20 336 349 -3 295 -5 303 -78 341 -39 21 -54 22
-295 23 -206 1 -258 -1 -280 -13z m309 -76 c17 -17 3 -49 -21 -49 -16 0 -22 6
-22 23 0 32 23 46 43 26z m320 -226 c-1 -43 -3 -10 -3 72 0 83 2 118 3 78 2
-40 2 -107 0 -150z m-434 158 c-6 -25 -50 -25 -56 0 -6 24 21 41 44 28 10 -5
15 -16 12 -28z m249 -3 c-6 -24 -49 -24 -54 0 -2 9 3 22 11 28 21 16 50 -3 43
-28z m-97 -33 c16 -15 25 -36 25 -55 0 -23 4 -30 20 -30 32 0 43 -36 37 -121
-3 -43 -8 -82 -12 -88 -9 -16 -237 -15 -253 1 -15 15 -16 161 -2 189 6 10 17
19 24 19 8 0 17 15 20 35 13 69 94 98 141 50z m-233 -47 c-6 -24 -49 -24 -54
0 -2 9 3 22 11 28 21 16 50 -3 43 -28z m405 22 c12 0 13 -3 4 -13 -6 -8 -8
-17 -4 -20 3 -4 -5 -7 -19 -7 -32 0 -45 28 -21 46 10 7 20 8 21 3 2 -5 11 -9
19 -9z m-442 -138 c-3 -8 -5 -17 -5 -20 0 -4 -11 -8 -24 -8 -19 -1 -24 3 -23
20 2 32 18 45 39 32 10 -6 16 -17 13 -24z m483 -9 c-5 -24 -45 -24 -52 0 -7
28 23 50 42 31 7 -8 12 -22 10 -31z m67 -239 c-3 -17 -17 -42 -31 -55 -25 -23
-32 -24 -242 -31 -235 -8 -301 -4 -329 18 -17 14 -16 15 7 8 14 -5 129 -7 255
-7 257 1 291 8 319 62 10 18 17 60 18 103 l2 73 4 -70 c2 -38 1 -84 -3 -101z
m-526 144 c25 -15 15 -48 -14 -48 -26 0 -37 27 -20 47 13 15 12 15 34 1z m423
-30 c-6 -24 -49 -24 -54 0 -2 9 3 22 11 28 21 16 50 -3 43 -28z m-327 -76 c-3
-8 -5 -17 -5 -21 0 -4 -10 -7 -22 -7 -28 1 -41 36 -19 52 19 15 54 -4 46 -24z
m250 0 c-3 -8 -5 -17 -5 -21 0 -5 -11 -6 -25 -3 -14 2 -23 7 -21 10 3 3 1 11
-5 19 -9 10 -8 13 5 13 9 0 16 5 16 10 0 6 8 5 20 -2 11 -7 18 -19 15 -26z
m-139 -10 c5 -4 10 -17 10 -28 0 -29 -42 -30 -50 -1 -7 28 17 45 40 29z"/>
<path d="M473 633 c-7 -2 -13 -16 -13 -29 0 -21 4 -24 40 -24 41 0 47 8 30 41
-10 18 -31 23 -57 12z"/>
<path d="M473 504 c-4 -10 -2 -19 5 -22 7 -2 10 -13 6 -28 -5 -19 -2 -24 13
-24 16 0 19 7 19 42 -1 32 -5 44 -19 46 -9 2 -20 -4 -24 -14z"/>
</g>
</svg>
